<svg xmlns="http://www.w3.org/2000/svg" width="1024" height="1024" viewBox="0 0 680 680">
  <title>Verso app icon</title>
  <rect width="680" height="680" fill="#0d0f1a" rx="120"/>
  <g transform="translate(348,345) rotate(-11)">
    <rect x="-240" y="-280" width="430" height="530" rx="22" fill="#7c6bff" opacity="0.9"/>
    <line x1="-190" y1="-185" x2="145"  y2="-185" stroke="#0d0f1a" stroke-width="13" stroke-linecap="round" opacity="0.3"/>
    <line x1="-190" y1="-135" x2="165"  y2="-135" stroke="#0d0f1a" stroke-width="13" stroke-linecap="round" opacity="0.3"/>
    <line x1="-190" y1="-85"  x2="125"  y2="-85"  stroke="#0d0f1a" stroke-width="13" stroke-linecap="round" opacity="0.3"/>
    <line x1="-190" y1="-35"  x2="155"  y2="-35"  stroke="#0d0f1a" stroke-width="13" stroke-linecap="round" opacity="0.3"/>
    <line x1="-190" y1="15"   x2="105"  y2="15"   stroke="#0d0f1a" stroke-width="13" stroke-linecap="round" opacity="0.3"/>
    <line x1="-190" y1="65"   x2="160"  y2="65"   stroke="#0d0f1a" stroke-width="13" stroke-linecap="round" opacity="0.3"/>
    <line x1="-190" y1="115"  x2="135"  y2="115"  stroke="#0d0f1a" stroke-width="13" stroke-linecap="round" opacity="0.3"/>
    <line x1="-190" y1="165"  x2="95"   y2="165"  stroke="#0d0f1a" stroke-width="13" stroke-linecap="round" opacity="0.3"/>
    <line x1="-190" y1="215"  x2="150"  y2="215"  stroke="#0d0f1a" stroke-width="13" stroke-linecap="round" opacity="0.3"/>
  </g>
  <g transform="translate(373,348) rotate(7)">
    <rect x="-215" y="-255" width="430" height="530" rx="22" fill="#b8aeff"/>
    <text x="0" y="175" text-anchor="middle" font-family="Georgia, 'Times New Roman', serif" font-size="72" font-weight="400" fill="#0d0f1a" opacity="0.75" letter-spacing="6">verso</text>
    <g transform="translate(0, -30) rotate(-18)">
      <rect x="-17" y="-208" width="34" height="88" rx="17" fill="#0a0a14"/>
      <rect x="-18" y="-124" width="36" height="9" rx="4" fill="#2a1f6e"/>
      <rect x="13" y="-205" width="6" height="90" rx="3" fill="#1a1440"/>
      <rect x="-15" y="-115" width="30" height="128" rx="8" fill="#111122"/>
      <rect x="-14" y="10" width="28" height="30" rx="6" fill="#0d0d1a"/>
      <rect x="-11" y="38" width="22" height="17" rx="4" fill="#0a0a14"/>
      <path d="M-10 55 L0 90 L10 55 Z" fill="#0a0a14"/>
      <line x1="0" y1="58" x2="0" y2="87" stroke="#4a35b0" stroke-width="2" opacity="0.8"/>
      <circle cx="0" cy="92" r="5" fill="#5040c0" opacity="0.9"/>
    </g>
  </g>
</svg>
